<?xml version="1.0" encoding="utf-8"?>
<!-- Generator: Adobe Illustrator 16.0.0, SVG Export Plug-In . SVG Version: 6.00 Build 0)  -->
<!DOCTYPE svg PUBLIC "-//W3C//DTD SVG 1.1//EN" "http://www.w3.org/Graphics/SVG/1.1/DTD/svg11.dtd">
<svg version="1.1" id="Capa_1" xmlns="http://www.w3.org/2000/svg" xmlns:xlink="http://www.w3.org/1999/xlink" x="0px" y="0px"
	 width="398px" height="398px" viewBox="-40.5 -42.5 398 398" enable-background="new -40.5 -42.5 398 398" xml:space="preserve">
<g>
	<path d="M196.644,204.523c0.439,1.853,0.732,3.724,0.732,5.643c0,5.997,0,5.298,0,11.295c0,24.941-37.917,45.164-84.688,45.164
		c-46.77,0-84.687-20.223-84.687-45.164c0-5.997,0-5.298,0-11.295c0-1.919,0.293-3.79,0.733-5.643
		c5.217,22.277,40.773,39.518,83.954,39.518C155.869,244.041,191.427,226.801,196.644,204.523z M112.688,277.916
		c-43.181,0-78.737-17.24-83.954-39.519c-0.44,1.853-0.733,3.725-0.733,5.644c0,5.997,0,5.298,0,11.294
		c0,24.942,37.917,45.165,84.687,45.165c46.771,0,84.688-20.223,84.688-45.165c0-5.996,0-5.297,0-11.294
		c0-1.919-0.293-3.791-0.732-5.644C191.427,260.676,155.869,277.916,112.688,277.916z M112.688,142.416
		c-46.77,0-84.687,20.223-84.687,45.17c0,24.943,37.917,45.164,84.687,45.164c46.771,0,84.688-20.221,84.688-45.164
		C197.376,162.639,159.459,142.416,112.688,142.416z M214.313,232.75c-1.909,0-3.771-0.079-5.646-0.137c0,12.084,0,21.924,0,22.57
		c1.875,0.052,3.737,0.147,5.646,0.147c46.771,0,84.688-20.218,84.688-45.17c0-5.996,0-5.293,0-11.289
		c0-1.919-0.293-3.791-0.732-5.648C293.052,215.507,257.494,232.75,214.313,232.75z M214.313,119.831
		c46.771,0,84.688-20.222,84.688-45.164c0-24.948-37.916-45.167-84.688-45.167s-84.688,20.22-84.688,45.167
		C129.625,99.609,167.542,119.831,214.313,119.831z M214.313,131.127c-43.179,0-78.739-17.245-83.954-39.523
		c-0.442,1.853-0.734,3.729-0.734,5.648c0,5.992,0,5.293,0,11.289c0,9.59,5.645,18.464,15.198,25.78
		c16.508,3.355,30.861,9.191,41.735,16.856c8.705,1.615,18.021,2.528,27.76,2.528c46.767,0,84.688-20.222,84.688-45.165
		c0-5.996,0-5.297,0-11.294c0-1.919-0.293-3.795-0.737-5.644C293.052,113.882,257.494,131.127,214.313,131.127z M214.313,165
		c-4.754,0-9.38-0.234-13.922-0.642c5.25,7.008,8.232,14.792,8.265,23.081c1.873,0.053,3.748,0.151,5.657,0.151
		c46.771,0,84.688-20.222,84.688-45.17c0-5.996,0-5.293,0-11.289c0-1.919-0.293-3.796-0.732-5.648
		C293.052,147.757,257.494,165,214.313,165z M214.313,198.875c-1.909,0-3.771-0.079-5.646-0.136c0,6.28,0,14.386,0,22.569
		c1.875,0.054,3.737,0.147,5.646,0.147c46.771,0,84.688-20.218,84.688-45.17c0-5.996,0-5.293,0-11.289
		c0-1.919-0.293-3.796-0.732-5.644C293.052,181.632,257.494,198.875,214.313,198.875z"/>
</g>
<circle fill="none" stroke="#000000" stroke-width="10" stroke-miterlimit="10" cx="158.5" cy="156.5" r="194"/>
</svg>
