<?xml version="1.0" encoding="utf-8"?>
<!-- Generator: Adobe Illustrator 16.0.0, SVG Export Plug-In . SVG Version: 6.00 Build 0)  -->
<!DOCTYPE svg PUBLIC "-//W3C//DTD SVG 1.1//EN" "http://www.w3.org/Graphics/SVG/1.1/DTD/svg11.dtd">
<svg version="1.1" id="Capa_1" xmlns="http://www.w3.org/2000/svg" xmlns:xlink="http://www.w3.org/1999/xlink" x="0px" y="0px"
	 width="429px" height="429px" viewBox="73.406 177 429 429" enable-background="new 73.406 177 429 429" xml:space="preserve">
<g>
	<g id="calendar_1_">
		<path fill="#3e3e3e" d="M391.662,290.344h-33.725v-15.562c0-4.303-3.479-7.781-7.781-7.781s-7.781,3.479-7.781,7.781v15.562
			h-46.688v-15.562c0-4.303-3.486-7.781-7.781-7.781c-4.295,0-7.781,3.479-7.781,7.781v15.562h-46.688v-15.562
			c0-4.303-3.486-7.781-7.781-7.781s-7.781,3.479-7.781,7.781v15.562h-33.716c-11.461,0-20.752,9.283-20.752,20.745v184.159
			c0,11.461,9.291,20.752,20.752,20.752h207.503c11.461,0,20.744-9.291,20.744-20.752V311.089
			C412.406,299.627,403.123,290.344,391.662,290.344z M396.844,495.248c0,2.862-2.326,5.189-5.182,5.189H184.159
			c-2.863,0-5.19-2.327-5.19-5.189V311.089c0-2.856,2.327-5.183,5.19-5.183h33.716v15.562c0,4.303,3.486,7.781,7.781,7.781
			s7.781-3.479,7.781-7.781v-15.562h46.688v15.562c0,4.303,3.486,7.781,7.781,7.781c4.295,0,7.781-3.479,7.781-7.781v-15.562h46.688
			v15.562c0,4.303,3.479,7.781,7.781,7.781s7.781-3.479,7.781-7.781v-15.562h33.725c2.855,0,5.182,2.326,5.182,5.183V495.248z"/>
		<rect x="217.875" y="360.375" fill="#3e3e3e" width="31.125" height="23.344"/>
		<rect x="217.875" y="399.281" fill="#3e3e3e" width="31.125" height="23.344"/>
		<rect x="217.875" y="438.188" fill="#3e3e3e" width="31.125" height="23.344"/>
		<rect x="272.344" y="438.188" fill="#3e3e3e" width="31.125" height="23.344"/>
		<rect x="272.344" y="399.281" fill="#3e3e3e" width="31.125" height="23.344"/>
		<rect x="272.344" y="360.375" fill="#3e3e3e" width="31.125" height="23.344"/>
		<rect x="326.812" y="438.188" fill="#3e3e3e" width="31.125" height="23.344"/>
		<rect x="326.812" y="399.281" fill="#3e3e3e" width="31.125" height="23.344"/>
		<rect x="326.812" y="360.375" fill="#3e3e3e" width="31.125" height="23.344"/>
	</g>
</g>
<circle fill="none" stroke="#3e3e3e" stroke-width="10" stroke-miterlimit="10" cx="287.906" cy="391.5" r="209.5"/>
</svg>
