<?xml version="1.0" encoding="utf-8"?>
<!-- Generator: Adobe Illustrator 16.0.0, SVG Export Plug-In . SVG Version: 6.00 Build 0)  -->
<!DOCTYPE svg PUBLIC "-//W3C//DTD SVG 1.1//EN" "http://www.w3.org/Graphics/SVG/1.1/DTD/svg11.dtd">
<svg version="1.1" id="Capa_1" xmlns="http://www.w3.org/2000/svg" xmlns:xlink="http://www.w3.org/1999/xlink" x="0px" y="0px"
	 width="349.467px" height="334.531px" viewBox="159.034 194.077 349.467 334.531"
	 enable-background="new 159.034 194.077 349.467 334.531" xml:space="preserve">
<path fill="#FFFFFF" d="M504.19,332.5c3.837-3.371,5.274-8.7,3.653-13.539c-1.62-4.84-5.987-8.23-11.078-8.609l-101.469-7.574
	c-4.713-0.359-8.827-3.288-10.687-7.62l-40.299-93.438c-2.025-4.675-6.656-7.698-11.759-7.642c-5.091,0.047-9.665,3.14-11.599,7.862
	l-38.559,94.17c-1.781,4.369-5.852,7.38-10.552,7.815l-101.32,9.448c-5.077,0.471-9.378,3.942-10.907,8.804
	c-1.528,4.862,0.012,10.174,3.895,13.47l77.642,65.78c3.599,3.058,5.207,7.85,4.173,12.448l-22.321,99.282
	c-1.116,4.978,0.849,10.139,5.01,13.104c4.161,2.953,9.677,3.138,14.022,0.447l86.536-53.527c4.013-2.48,9.07-2.528,13.138-0.113
	l87.516,51.907c4.38,2.597,9.905,2.321,13.998-0.713s5.977-8.242,4.759-13.193l-24.14-98.848c-1.126-4.587,0.391-9.415,3.933-12.527
	L504.19,332.5z"/>
</svg>
