<?xml version="1.0" encoding="utf-8"?>
<!-- Generator: Adobe Illustrator 16.0.0, SVG Export Plug-In . SVG Version: 6.00 Build 0)  -->
<!DOCTYPE svg PUBLIC "-//W3C//DTD SVG 1.1//EN" "http://www.w3.org/Graphics/SVG/1.1/DTD/svg11.dtd">
<svg version="1.1" id="Capa_1" xmlns="http://www.w3.org/2000/svg" xmlns:xlink="http://www.w3.org/1999/xlink" x="0px" y="0px"
	 width="353.969px" height="353.969px" viewBox="38.02 20.756 353.969 353.969"
	 enable-background="new 38.02 20.756 353.969 353.969" xml:space="preserve">
<g>
	<path fill="#FFFFFF" d="M216.004,75.269c-49.896,0-90.354,40.458-90.354,90.354c0,20.323,6.706,39.06,18.031,54.163l72.324,96.427
		l72.324-96.427c11.325-15.104,18.031-33.839,18.031-54.163C306.359,115.727,265.9,75.269,216.004,75.269z M216.004,225.858
		c-33.265,0-60.235-26.969-60.235-60.234s26.971-60.236,60.235-60.236c33.266,0,60.235,26.971,60.235,60.236
		C276.239,198.89,249.27,225.858,216.004,225.858z"/>
</g>
<circle fill="none" stroke="#FFFFFF" stroke-width="20" stroke-miterlimit="10" cx="215.005" cy="197.74" r="166.985"/>
</svg>
