<?xml version="1.0" encoding="utf-8"?>
<!-- Generator: Adobe Illustrator 16.0.0, SVG Export Plug-In . SVG Version: 6.00 Build 0)  -->
<!DOCTYPE svg PUBLIC "-//W3C//DTD SVG 1.1//EN" "http://www.w3.org/Graphics/SVG/1.1/DTD/svg11.dtd">
<svg version="1.1" id="Capa_1" xmlns="http://www.w3.org/2000/svg" xmlns:xlink="http://www.w3.org/1999/xlink" x="0px" y="0px"
	 width="271.759px" height="271.379px" viewBox="63.745 94.368 271.759 271.379"
	 enable-background="new 63.745 94.368 271.759 271.379" xml:space="preserve">
<g>
	<path fill="#FFFFFF" d="M272.396,323.529h-29.623c-1.069,0-1.942-0.892-1.942-1.983v-7.364c0-1.093-0.874-1.983-1.942-1.983h-41.45
		c-1.07,0-1.943,0.891-1.943,1.983v7.364c0,1.092-0.874,1.983-1.943,1.983h-22.27c-1.069,0-1.943,0.892-1.943,1.983v8.519
		c0,1.091,0.874,1.984,1.943,1.984h101.112c1.069,0,1.942-0.894,1.942-1.984v-8.519
		C274.339,324.422,273.464,323.529,272.396,323.529z"/>
	<g>
		<path fill="#FFFFFF" d="M322.165,124.368H110.786c-7.354,0-13.337,6.111-13.337,13.623c0,0,0,25.975,0,35.53
			c0,4.697-0.341,5.362,2.745,5.362c1.639,0,3.454,0,5.291,0c2.589,0,2.058-0.665,2.058-5.45c0-9.534,0-35.442,0-35.442
			c0-1.795,1.486-3.313,3.244-3.313h211.379c1.756,0,3.242,1.518,3.242,3.313v132.992h-150.7c0,0-5.312-0.01-5.312,7.003
			c0,4.158,0,12.476,0,16.635c0,7.004,5.483,7.004,5.483,7.004h147.286c7.353,0,13.339-6.109,13.339-13.621V137.991
			C335.504,130.479,329.52,124.368,322.165,124.368z M216.476,289.864c-3.32,0-6.012-2.75-6.012-6.138
			c0-3.39,2.691-6.139,6.012-6.139c3.317,0,6.01,2.749,6.01,6.139C222.485,287.114,219.793,289.864,216.476,289.864z"/>
		<path fill="#FFFFFF" d="M148.821,191.049H72.353c-4.748,0-8.608,3.943-8.608,8.792v128.353c0,4.848,3.86,8.792,8.608,8.792h76.468
			c4.745,0,8.608-3.944,8.608-8.792V199.841C157.429,194.992,153.566,191.049,148.821,191.049z M101.154,200.016h18.864
			c0.9,0,1.631,0.745,1.631,1.667c0,0.92-0.73,1.665-1.631,1.665h-18.864c-0.901,0-1.63-0.745-1.63-1.665
			C99.524,200.761,100.253,200.016,101.154,200.016z M110.472,330.811c-2.46,0-4.455-2.038-4.455-4.551s1.995-4.549,4.455-4.549
			c2.461,0,4.456,2.036,4.456,4.549S112.933,330.811,110.472,330.811z M150.033,317.438c0,1.173-0.92,2.132-2.042,2.132H73.186
			c-1.123,0-2.042-0.959-2.042-2.132V210.783c0-1.174,0.92-2.132,2.042-2.132h74.805c1.123,0,2.042,0.959,2.042,2.132V317.438z"/>
	</g>
</g>
</svg>
