<?xml version="1.0" encoding="utf-8"?>
<!-- Generator: Adobe Illustrator 16.0.0, SVG Export Plug-In . SVG Version: 6.00 Build 0)  -->
<!DOCTYPE svg PUBLIC "-//W3C//DTD SVG 1.1//EN" "http://www.w3.org/Graphics/SVG/1.1/DTD/svg11.dtd">
<svg version="1.1" id="Capa_1" xmlns="http://www.w3.org/2000/svg" xmlns:xlink="http://www.w3.org/1999/xlink" x="0px" y="0px"
	 width="297.221px" height="293.37px" viewBox="72.957 78.324 297.221 293.37"
	 enable-background="new 72.957 78.324 297.221 293.37" xml:space="preserve">
<g>
	<g>
		<g>
			<path fill="#FFFFFF" d="M223.911,165.118v-0.005c-0.023,0-0.043,0.004-0.068,0.004v-0.004c-0.008,0-0.02,0-0.027,0.004
				c-0.015-0.004-0.023-0.004-0.036-0.004v0.004c-0.025,0-0.04-0.004-0.063-0.004v0.005c-15.326,0.408-24.733,9.082-24.578,24.258
				c0.231,21.868,9.446,35.136,24.601,34.903v0.005c0.013,0,0.025,0,0.04,0c0.007,0,0.015,0,0.028,0c0,0,0.002,0,0.008,0h0.008
				c0.01,0,0.015,0,0.02,0c0.016,0,0.029,0,0.041,0v-0.005c15.154,0.233,24.372-13.035,24.604-34.903
				C248.644,174.201,239.237,165.526,223.911,165.118z"/>
			<path fill="#FFFFFF" d="M148.16,313.464c-2.002-0.962-4.5-1.504-6.842-1.504c-6.098,0-9.884,3.631-9.884,9.462v5.288h-2.29
				c-0.928,0-1.678,0.756-1.678,1.686v3.459c0,0.921,0.75,1.676,1.678,1.676h2.29v13.126c0,0.93,0.75,1.684,1.678,1.684h6.576
				c0.928,0,1.677-0.754,1.677-1.684v-13.074h5.781c0.923,0,1.678-0.752,1.678-1.676v-3.511c0-0.93-0.753-1.685-1.678-1.685h-5.781
				v-3.854c0-1.868,0.645-2.702,2.095-2.702l0.101,0.001c0.606,0,1.313,0.149,2.192,0.45c0.437,0.139,0.918,0.104,1.325-0.104
				c0.41-0.22,0.713-0.591,0.836-1.029l1.143-4.034C149.281,314.645,148.903,313.809,148.16,313.464z"/>
			<path fill="#FFFFFF" d="M328.628,78.324c-22.91,0-41.547,18.633-41.547,41.542c0,8.89,2.818,17.129,7.592,23.895L276.1,162.333
				c-13.824-12.562-32.173-20.224-52.278-20.224c-21.281,0-40.589,8.588-54.65,22.476l-18.925-15.638
				c3.684-6.203,5.808-13.433,5.808-21.156c0-22.907-18.637-41.542-41.547-41.542c-22.909,0-41.55,18.635-41.55,41.542
				c0,22.911,18.638,41.553,41.548,41.553c10.884,0,20.798-4.213,28.212-11.085l18.598,15.368
				c-9.615,12.947-15.311,28.967-15.311,46.298c0,24.544,11.424,46.464,29.229,60.737l-13.376,15.212
				c-6.679-4.584-14.753-7.274-23.447-7.274c-22.91,0-41.547,18.644-41.547,41.552s18.638,41.543,41.548,41.543
				s41.548-18.634,41.548-41.543c0-9.904-3.491-19.01-9.298-26.158l14.536-16.531c11.388,6.539,24.576,10.279,38.625,10.279
				c42.908,0,77.814-34.906,77.814-77.816c0-18.503-6.491-35.512-17.315-48.881l18.585-18.586
				c7.081,5.604,16.016,8.962,25.724,8.962c22.911,0,41.549-18.645,41.549-41.553C370.178,96.957,351.539,78.324,328.628,78.324z
				 M138.41,360.784c-16.892,0-30.638-13.744-30.638-30.632c0-16.896,13.746-30.632,30.638-30.632
				c16.892,0,30.633,13.737,30.633,30.632C169.043,347.039,155.301,360.784,138.41,360.784z M114.504,158.424
				c-16.892,0-30.638-13.735-30.638-30.634c0-16.884,13.745-30.629,30.638-30.629c16.892,0,30.632,13.745,30.632,30.629
				C145.136,144.689,131.396,158.424,114.504,158.424z M274.474,257.853c-1.087-7.69-3.071-15.403-7.012-16.971l-24.651-9.826
				l-5.772-4.862c-1.525-1.292-3.777-1.198-5.191,0.209l-8.025,7.983l-8.046-7.987c-1.414-1.403-3.663-1.492-5.188-0.207
				l-5.771,4.862l-24.651,9.828c-3.937,1.57-5.92,9.278-7.001,16.968c-7.938-10.577-12.65-23.712-12.65-37.928
				c0-34.905,28.4-63.306,63.308-63.306c34.907,0,63.304,28.401,63.304,63.306C287.124,234.14,282.414,247.274,274.474,257.853z
				 M328.628,150.499c-16.892,0-30.633-13.737-30.633-30.633c0-16.888,13.741-30.632,30.633-30.632s30.637,13.744,30.637,30.632
				C359.265,136.762,345.52,150.499,328.628,150.499z"/>
			<path fill="#FFFFFF" d="M338.133,130.544c-0.125-0.437-0.427-0.81-0.834-1.028c-0.409-0.208-0.885-0.242-1.321-0.104
				c-0.882,0.301-1.592,0.45-2.198,0.45l-0.1,0.001c-1.445,0-2.09-0.834-2.09-2.702v-10.73h5.776c0.929,0,1.678-0.754,1.678-1.686
				v-3.508c0-0.924-0.749-1.675-1.678-1.675h-5.777v-6.2c0-0.931-0.756-1.676-1.679-1.676h-6.58c-0.925,0-1.677,0.744-1.677,1.676
				v6.248h-2.287c-0.931,0-1.682,0.756-1.682,1.676v3.459c0,0.932,0.753,1.686,1.682,1.686h2.287v12.164
				c0,5.831,3.786,9.462,9.883,9.462c2.347,0,4.84-0.542,6.848-1.504c0.741-0.345,1.116-1.181,0.895-1.962L338.133,130.544z"/>
			<path fill="#FFFFFF" d="M126.62,109.816h-5.714c-0.928,0-1.676,0.752-1.676,1.674v0.783c-1.767-1.806-4.17-2.75-7.022-2.75
				l-0.15,0.001c-6.684,0-11.346,5.194-11.346,12.627c0,7.6,4.735,12.902,11.518,12.902c2.844,0,5.24-0.944,7-2.738v1.602
				c0,3.067-2.223,4.893-5.945,4.893c-2.262,0-4.57-0.636-6.667-1.826c-0.398-0.228-0.873-0.277-1.311-0.15
				c-0.437,0.125-0.809,0.439-1.017,0.838l-1.713,3.348c-0.407,0.796-0.121,1.775,0.65,2.225c3.145,1.817,6.932,2.817,10.676,2.817
				c8.607,0,14.394-4.979,14.394-12.382v-22.19C128.297,110.568,127.543,109.816,126.62,109.816z M114.291,128.238
				c-3.015,0-5.035-2.352-5.035-5.85c0-3.529,2.021-5.893,5.035-5.893c2.953,0,4.939,2.364,4.939,5.893
				C119.229,125.886,117.242,128.238,114.291,128.238z"/>
		</g>
	</g>
</g>
</svg>
