<?xml version="1.0" encoding="utf-8"?>
<!-- Generator: Adobe Illustrator 16.0.0, SVG Export Plug-In . SVG Version: 6.00 Build 0)  -->
<!DOCTYPE svg PUBLIC "-//W3C//DTD SVG 1.1//EN" "http://www.w3.org/Graphics/SVG/1.1/DTD/svg11.dtd">
<svg version="1.1" id="Capa_1" xmlns="http://www.w3.org/2000/svg" xmlns:xlink="http://www.w3.org/1999/xlink" x="0px" y="0px"
	 width="307.939px" height="328.588px" viewBox="86.912 72.175 307.939 328.588"
	 enable-background="new 86.912 72.175 307.939 328.588" xml:space="preserve">
<g>
	<path fill="#FFFFFF" d="M385.957,348.895L280.067,243c-0.993-0.996-2.053-1.88-3.145-2.705l18.754-19.749
		c0.959-0.966,1.866-1.981,2.7-3.025c24.899,9.392,54.114,4.112,74.128-15.898c14.597-14.602,21.958-34.793,20.177-55.4
		c-0.193-2.332-1.737-4.348-3.936-5.144c-2.2-0.804-4.667-0.255-6.324,1.395l-33.937,33.936l-34.361-8.662l-9.743-35.444
		l33.929-33.931c1.665-1.659,2.208-4.128,1.406-6.328c-0.798-2.205-2.813-3.737-5.152-3.942
		c-20.604-1.776-40.798,5.581-55.401,20.183c-19.995,19.996-25.288,49.196-15.906,74.084c-1.021,0.862-2.036,1.779-3.032,2.761
		l-27.604,26.511l-50.689-50.685c-0.633-0.635-1.308-1.193-2.004-1.718c0.595-1.043,1.173-2.118,1.714-3.233
		c10.705,2.061,30.276-18.787,46.897-35.402l-48.423-48.429c-21.653,21.657-37.464,36.19-35.412,46.896
		c-4.95,2.418-9.363,5.376-12.5,8.516l-6.821,6.819c-4.429,4.435-7.1,9.95-8.053,15.696c-0.662,0.756-1.335,1.552-2.004,2.403
		l-2.542,3.195c-0.071,0.079-0.29,0.393-0.351,0.474l-2.304,3.225c-1.441,1.923-2.701,4.011-3.919,6.027
		c-0.449,0.748-0.907,1.498-1.374,2.245c-0.074,0.129-0.147,0.256-0.214,0.384l-1.023,1.929c-1.237,2.32-2.522,4.723-3.621,7.365
		L99.8,177.77c-1.296,3.078-2.639,6.266-3.576,9.644l-0.454,1.462c-0.371,1.202-0.749,2.4-1.095,3.834l-0.941,4.66
		c-0.702,2.914-0.938,5.789-1.143,8.335l-0.137,1.674c-0.347,2.64-0.246,5.129-0.151,7.326c0.032,0.735,0.061,1.457,0.083,2.431
		c0.025,0.405,0.029,0.8,0.041,1.189c0.024,0.981,0.05,2.097,0.24,3.27l0.59,3.782c0.127,0.73,0.234,1.44,0.335,2.121
		c0.226,1.536,0.458,3.125,0.916,4.633l2.477,8.595c0.764,2.612,3.245,4.343,5.96,4.152c1.437-0.1,2.729-0.722,3.691-1.686
		c0.858-0.858,1.453-1.987,1.635-3.261l1.284-8.738c0.095-0.693,0.393-1.709,0.701-2.784c0.22-0.745,0.434-1.506,0.599-2.154
		l0.913-3.262c0.111-0.441,0.327-0.871,0.516-1.312c0.182-0.41,0.363-0.831,0.525-1.247c0.306-0.693,0.595-1.387,0.878-2.098
		c0.562-1.395,1.095-2.707,1.907-3.995c0.354-0.595,0.682-1.186,1.017-1.789c0.846-1.515,1.65-2.946,2.606-4.132
		c0.06-0.07,0.115-0.148,0.177-0.232l2.155-2.971c0.441-0.559,0.937-1.087,1.419-1.618c0.342-0.375,0.685-0.753,1.119-1.249
		c1.271-1.529,2.766-2.863,4.207-4.177l0.772-0.693c1.068-0.991,2.304-1.925,3.604-2.911c0.532-0.397,1.052-0.792,1.563-1.182
		c0.657-0.425,1.293-0.85,1.919-1.271c1.173-0.793,2.188-1.478,3.362-2.089l2.554-1.453l2.584-1.268
		c0.901-0.466,1.788-0.824,2.606-1.154c0.485-0.202,0.966-0.397,1.411-0.591c0.453-0.156,0.891-0.326,1.304-0.479
		c0.554-0.201,1.032-0.396,1.681-0.564l0.697-0.157c0.76,1.23,1.65,2.399,2.719,3.467l50.141,50.144L98.173,340.783
		c-0.042,0.04-0.083,0.084-0.121,0.122c-13.32,13.319-15.489,32.827-2.167,46.151c13.322,13.32,31.59,9.904,44.906-3.41
		c0.059-0.058,0.109-0.109,0.161-0.171l94.428-99.43c0.555,0.652,1.103,1.309,1.718,1.926l105.883,105.89
		c11.863,11.87,31.11,11.87,42.975,0C397.817,380.001,397.817,360.754,385.957,348.895z M126.972,372.664
		c-4.905,4.909-12.86,4.909-17.769,0c-4.904-4.906-4.904-12.857,0-17.763c4.904-4.903,12.86-4.906,17.769,0
		C131.872,359.807,131.872,367.757,126.972,372.664z"/>
</g>
</svg>
